<svg id="birds" xmlns="http://www.w3.org/2000/svg" width="1.12in" height="0.65in" viewBox="0 0 80.39 46.54">
  <defs>
    <style>
      .cls-1 {
        fill: none;
        stroke: #67580d;
        stroke-linecap: round;
        stroke-miterlimit: 10;
        stroke-width: 2px;
      }
    </style>
  </defs>
  <path id="birds-2" data-name="birds" class="cls-1" d="M68.45,32.54c-5.79-3.89-10.38-.76-11.33,0a0,0,0,0,1-.07-.06c.37-.79,1.14-7.08-3.73-8.69m8-11.51c4.11,1.35,3.46,6.65,3.14,7.31,0,0,0,.08.06.05a7.87,7.87,0,0,1,9.54,0M69.57,1C72.73,2,72.24,6.12,72,6.64c0,0,0,.05.05,0a6.06,6.06,0,0,1,7.35,0M47.24,5.31C50.45,6.37,50,10.51,49.7,11c0,0,0,.06,0,0a6.14,6.14,0,0,1,7.45,0M24.42,8.55c3.81,1.25,3.21,6.17,2.92,6.79,0,0,0,.07.06,0a7.31,7.31,0,0,1,8.85,0m8.53,18.9c6.25,2.05,5.27,10.12,4.78,11.13,0,.06,0,.12.1.08,1.21-.95,7.1-5,14.53,0M1,10.8c4.89,1.61,4.12,7.92,3.74,8.71a0,0,0,0,0,.07.06c1-.74,5.56-3.88,11.36,0"/>
</svg>
