<svg id="bushes" xmlns="http://www.w3.org/2000/svg" width="1.01in" height="1.01in" viewBox="0 0 72.88 72.57">
  <defs>
    <style>
      .cls-1 {
        fill: #66753e;
      }

      .cls-2 {
        fill: #77914d;
      }

      .cls-3 {
        fill: #6d7f44;
      }

      .cls-4 {
        fill: #7d9b53;
      }

      .cls-5 {
        fill: #73894b;
      }

      .cls-6 {
        fill: #84a759;
      }

      .cls-7 {
        fill: #eff4e6;
      }

      .cls-8 {
        fill: #e15743;
      }
    </style>
  </defs>
  <circle id="bushes3S" class="cls-1" cx="37.95" cy="31.94" r="31.94"/>
  <path id="bushes3L" class="cls-2" d="M49.11,2a31.94,31.94,0,0,0-11,61.87A31.94,31.94,0,0,0,49.11,2Z"/>
  <circle id="bushes2S" class="cls-3" cx="27.15" cy="45.42" r="27.15"/>
  <path id="bushes2L" class="cls-4" d="M36.63,20a27.15,27.15,0,0,0-9.37,52.59A27.15,27.15,0,0,0,36.63,20Z"/>
  <circle id="bushes1S" class="cls-5" cx="50.85" cy="49.61" r="22.03"/>
  <path id="bushes1L" class="cls-6" d="M58.54,29a22,22,0,0,0-7.6,42.69A22,22,0,0,0,58.54,29Z"/>
  <path id="bushes-flowerP" class="cls-7" d="M52.88,44.39a.86.86,0,0,0,.48.16.84.84,0,0,0,.25-1.65.83.83,0,0,0,.24-.59.85.85,0,0,0-.85-.85.84.84,0,0,0-.76.5.84.84,0,0,0-1.58.41.8.8,0,0,0,.1.38.85.85,0,0,0,.37,1.61l.08,0a.84.84,0,0,0,1.67,0Zm-1-1.26a.89.89,0,0,0,.39-.4.84.84,0,0,0,.47.38.84.84,0,0,0-.21.48.82.82,0,0,0-.48-.17l-.09,0A1,1,0,0,0,51.88,43.13ZM29.77,30.42a.83.83,0,0,0,.24-.59.85.85,0,0,0-1.62-.36.84.84,0,0,0-.73-.43.85.85,0,0,0-.85.85.83.83,0,0,0,.1.38.85.85,0,0,0,.37,1.61l.09,0a.85.85,0,0,0,.84.78A.82.82,0,0,0,29,31.9a.82.82,0,0,0,.48.17.85.85,0,0,0,.85-.85A.84.84,0,0,0,29.77,30.42Zm-1.09.68a.83.83,0,0,0-.47-.16l-.09,0a.85.85,0,0,0-.09-.32.78.78,0,0,0,.4-.4.83.83,0,0,0,.47.39A.89.89,0,0,0,28.68,31.1ZM65.09,46.39a1.12,1.12,0,0,0,.33-.79,1.14,1.14,0,0,0-2.18-.48,1.11,1.11,0,0,0-1-.59,1.14,1.14,0,0,0-1.14,1.14,1.15,1.15,0,0,0,.14.52,1.13,1.13,0,0,0,.49,2.16l.12,0a1.13,1.13,0,0,0,2.24.06,1.1,1.1,0,0,0,.64.22,1.14,1.14,0,0,0,.34-2.22Zm-1.45.92a1.13,1.13,0,0,0-.65-.22l-.11,0a1.45,1.45,0,0,0-.12-.42,1.14,1.14,0,0,0,.53-.53,1.15,1.15,0,0,0,.64.52A1,1,0,0,0,63.64,47.31ZM46.46,8.75A1.11,1.11,0,0,0,46.78,8a1.14,1.14,0,0,0-2.17-.48,1.12,1.12,0,0,0-1-.59,1.13,1.13,0,0,0-1,1.66,1.13,1.13,0,0,0-.64,1,1.14,1.14,0,0,0,1.14,1.14l.12,0a1.12,1.12,0,0,0,2.23.06,1.13,1.13,0,0,0,.65.22,1.14,1.14,0,0,0,.34-2.22ZM45,9.67a1.1,1.1,0,0,0-.64-.22l-.12,0a1.19,1.19,0,0,0-.11-.42,1.14,1.14,0,0,0,.53-.53,1.1,1.1,0,0,0,.63.51A1.22,1.22,0,0,0,45,9.67ZM23.3,54.79a1.14,1.14,0,0,0-.82-1.94,1.14,1.14,0,0,0-1,.67,1.11,1.11,0,0,0-1-.59,1.14,1.14,0,0,0-1.14,1.14,1.07,1.07,0,0,0,.13.51,1.14,1.14,0,0,0,.5,2.17l.12,0a1.13,1.13,0,0,0,2.24.06A1.07,1.07,0,0,0,23,57a1.14,1.14,0,0,0,1.14-1.14A1.12,1.12,0,0,0,23.3,54.79Zm-1.46.92a1.08,1.08,0,0,0-.64-.23l-.12,0a1.19,1.19,0,0,0-.11-.42,1.11,1.11,0,0,0,.53-.54,1.11,1.11,0,0,0,.64.52A1.13,1.13,0,0,0,21.84,55.71ZM55.44,53a.93.93,0,0,0-.67-1.57.91.91,0,0,0-.83.53.92.92,0,0,0-1.73.45.82.82,0,0,0,.11.42.92.92,0,0,0,.4,1.76l.1,0a.92.92,0,0,0,.91.86.93.93,0,0,0,.91-.81.86.86,0,0,0,.52.18.92.92,0,0,0,.28-1.8Zm-1.19.75a.86.86,0,0,0-.52-.18h-.09a1,1,0,0,0-.1-.34.92.92,0,0,0,.44-.43.89.89,0,0,0,.51.42A1,1,0,0,0,54.25,53.72ZM51.51,20.33A.91.91,0,0,0,53,19.58a.92.92,0,0,0-.65-.88.88.88,0,0,0,.27-.64.93.93,0,0,0-.93-.93.92.92,0,0,0-.84.54.92.92,0,0,0-.8-.48.93.93,0,0,0-.93.93,1,1,0,0,0,.11.42.92.92,0,0,0-.53.83.94.94,0,0,0,.94.93l.09,0a.92.92,0,0,0,.92.85A.91.91,0,0,0,51.51,20.33ZM50.41,19a.9.9,0,0,0,.44-.44.89.89,0,0,0,.51.42,1,1,0,0,0-.23.52,1,1,0,0,0-.52-.18l-.1,0A.79.79,0,0,0,50.41,19ZM19.46,37.14a.92.92,0,0,0,.91.85.93.93,0,0,0,.91-.81.87.87,0,0,0,.52.19.93.93,0,0,0,.28-1.81.93.93,0,0,0,.26-.64.93.93,0,0,0-1.77-.39.92.92,0,0,0-1.72.45.88.88,0,0,0,.11.42.92.92,0,0,0-.53.83.93.93,0,0,0,.93.93Zm1.15-1.77a.94.94,0,0,0,.52.42,1,1,0,0,0-.24.52.86.86,0,0,0-.52-.18l-.1,0a1,1,0,0,0-.09-.34A.92.92,0,0,0,20.61,35.37Z"/>
  <path id="bushes-flowerC" class="cls-8" d="M52.87,43.21a.63.63,0,1,1-.63-.63A.63.63,0,0,1,52.87,43.21ZM28.4,30.1a.63.63,0,1,0,.62.62A.63.63,0,0,0,28.4,30.1ZM63.25,46a.84.84,0,1,0,.84.84A.85.85,0,0,0,63.25,46ZM44.62,8.32a.84.84,0,1,0,.84.84A.84.84,0,0,0,44.62,8.32Zm-23.16,46a.85.85,0,1,0,.84.84A.85.85,0,0,0,21.46,54.35Zm32.48-1.73a.68.68,0,0,0,0,1.36.68.68,0,1,0,0-1.36ZM50.82,18.35a.69.69,0,1,0,.68.69A.69.69,0,0,0,50.82,18.35ZM21.26,35.89a.68.68,0,1,0-.68.69A.68.68,0,0,0,21.26,35.89Z"/>
</svg>
