<svg id="campground" xmlns="http://www.w3.org/2000/svg" width="8.5in" height="7.92in" viewBox="0 0 611.83 570.59">
  <defs>
    <style>
      .cls-1 {
        fill: #d27f3b;
      }

      .cls-2 {
        fill: #c67438;
      }

      .cls-3 {
        fill: #b76732;
      }

      .cls-4 {
        fill: #a8582c;
      }

      .cls-5 {
        fill: #9ab550;
      }

      .cls-6 {
        fill: #94a84a;
      }

      .cls-7 {
        fill: #6d7f3b;
      }

      .cls-8 {
        fill: #657235;
      }

      .cls-9 {
        fill: #86a04d;
      }
    </style>
  </defs>
  <g id="dirt">
    <path id="dirtL1" class="cls-1" d="M320.2,366l21.7-20.45L342,548.7l-21.89,21.89Zm68.08,149.9,29.47-13.47.51-203.55-29.38,13.47v30Zm79.15-15.16,29.47-34.52,23.58-26.1,31.16-12.63,32-10.11,21-18.52L611.42,387l.41-205.25-7.43,13.93-20.73,17.64-63.45,23.53-21.36,22-31.41,38.67Z"/>
    <path id="dirtL2" class="cls-2" d="M418.26,298.84l49.19-1.32,0,203.18-49.68,1.69Zm-29.37,43.49-47,3.18L342,548.7l48-2.53ZM283.8,354.56,282.19,558.8l37.89,11.79L320.2,366Z"/>
    <path id="dirtS1" class="cls-3" d="M283.8,354.56,282.19,558.8l-19.57-35.51,12.79-195.35ZM170.05,473l15.09,21.13,47.29,13.08,20.41-195.88-64.73-19.6ZM146.36,253l-40.74-6.63-2,202.47,42.26,8.05,26-187.49Zm-46.27-33.6L67.93,207.92,66.41,411.6l21.13,8Z"/>
    <path id="dirtS2" class="cls-4" d="M252.84,311.31l22.57,16.63L262.62,523.29l-30.19-16.1ZM145.9,456.88,170.05,473l18.06-181.27L171.9,269.39ZM87.54,419.65l10.06,2,6,27.17,2-202.47-5.53-27ZM0,386.45,18.11,411.6h48.3l1.52-203.68L18.2,206.11.81,182.36Z"/>
  </g>
  <g id="campground-top">
    <path id="campgroundL1" class="cls-5" d="M320.16,7.54,332.38,0l29.7,7.73L363,34.44,320.78,16.27Zm170,97.54-5.94-16.7L445.13,65.22l10.58,35.72Zm39.68,9.53,11,20.72,26.46,12.79-30.87,16.76-45.86,19.4L441.6,239.84l25.85,57.68,31.41-38.67,21.36-22,63.45-23.53,20.73-17.64,7.43-13.93-5.26-13.92-31.88-14.24-9-22ZM403.24,241.17,345.91,266.3l43,46,29.38-13.47ZM320.2,366l21.7-20.45-24.21-60.25L309.8,321Zm25.71-99.66v20.29l43,55.74v-30Z"/>
    <path id="campgroundL2" class="cls-6" d="M317.69,285.26l28.22,1.33,43,55.74-47,3.18Zm100.57,13.58,49.19-1.32L441.6,239.84l-38.36,1.33ZM309.8,321l-26,33.6L320.2,366Zm11-304.69-.62-8.73-29.81,3.88Zm209,98.34,11,20.72,33.87,18.29-9-22Z"/>
    <path id="campgroundS1" class="cls-7" d="M140.42,170.61l-40.33,48.78L67.93,207.92l9.24-43.28,12.1-12.55Zm5.29,22.93-40.09,52.82L146.36,253l25.54,16.4,37.31-48.07L170,197.51Zm63.5,27.78L171.9,269.39l16.21,22.32,64.73,19.6,22.57,16.63,8.39,26.62,26-33.6,7.89-35.7-30.87-26.45-66.58-20.73Zm66.2,106.62,8.39,26.62,26-33.6,7.89-35.7Z"/>
    <path id="campgroundS2" class="cls-8" d="M140.42,170.61l5.29,22.93-40.09,52.82-5.53-27ZM218,86l.44-27.78-43.2,10.08-.35,21.64Zm72.32-74.53L256.12,24.48,245,47.22l-9.33,10.52,16.8-.9L285.06,22Zm-189.24,104L93.24,130l29.1-7.93,14.55-24.26ZM77.17,164.64l12.1-12.55,4-22.05L51.78,147.79,48,171.62Zm-9.24,43.28,9.24-43.28L.81,182.36,18.2,206.11Zm218.89,50.89-34,52.5,22.57,16.63,42.28-42.68ZM171.9,269.39l16.21,22.32,32.13-53.63-11-16.76Z"/>
    <polygon id="campround-base" class="cls-9" points="218.03 85.95 149.24 92.12 136.89 97.85 122.34 122.11 93.24 130.04 89.27 152.09 140.42 170.61 145.71 193.54 169.97 197.51 209.21 221.32 220.24 238.08 286.82 258.81 317.69 285.26 345.91 286.59 345.91 266.3 403.24 241.17 441.6 239.84 490.55 184.28 536.41 164.88 567.28 148.12 540.82 135.34 529.79 114.61 518.33 108.44 455.71 100.94 445.13 65.22 434.55 59.05 401.03 50.67 320.78 16.27 290.35 11.42 285.06 22.01 252.43 56.84 218.47 58.16 218.03 85.95"/>
  </g>
</svg>
