<svg id="grass" xmlns="http://www.w3.org/2000/svg" width="0.79in" height="1.12in" viewBox="0 0 56.6 80.61">
  <defs>
    <style>
      .cls-1 {
        fill: #738936;
      }

      .cls-2 {
        fill: #86a04d;
      }

      .cls-3 {
        fill: #eff4e6;
      }

      .cls-4 {
        fill: #e15743;
      }
    </style>
  </defs>
  <path id="grassS" class="cls-1" d="M55.15,59.84c-1.17-3.69-3-11.7.55-17.81A75.51,75.51,0,0,0,52,50c.85-5.15,1.26-11.22,0-16.33,0,0-1.65,17-3.34,24.2a27.55,27.55,0,0,1,2.14-18.73s-5,8.26-6.26,17A55.26,55.26,0,0,0,39.11,43.4a27.79,27.79,0,0,1,2.47,17.28L41,61c-1.6-7.71-3.09-23.06-3.09-23.06C36.62,43,37,49.1,37.87,54.26c-.56-1.45-1.18-2.83-1.74-4a9.33,9.33,0,0,1,.43-.83s-.17.3-.44.82c-.86-1.84-1.61-3.25-1.87-3.73A20.23,20.23,0,0,0,33.71,43s-1.25,12.87-2.53,18.33a20.84,20.84,0,0,1,1.63-14.19A39.26,39.26,0,0,0,28.06,60,41.62,41.62,0,0,0,24,50.42a21,21,0,0,1,1.87,13.09l-.43.23c-1.21-5.84-2.34-17.46-2.34-17.46-1,3.87-.68,8.47,0,12.37A58,58,0,0,0,20.43,53a16.65,16.65,0,0,1,2.07-8,75.51,75.51,0,0,0-3.72,7.95c.85-5.15,1.26-11.22,0-16.33,0,0-1.65,17-3.34,24.2a27.55,27.55,0,0,1,2.14-18.73s-5,8.26-6.25,17A55.53,55.53,0,0,0,5.91,46.36,27.79,27.79,0,0,1,8.38,63.64l-.57.3c-1.6-7.71-3.09-23.06-3.09-23.06-1.3,5.12-.89,11.18,0,16.34a77.51,77.51,0,0,0-3.73-8c3.57,6.12,2.16,18.43,2.16,18.43L0,69.08,31.18,80.6,56.6,65.89M8.07,65.05v0Zm13.57-3.3A30.22,30.22,0,0,1,20.43,53,14.78,14.78,0,0,1,21.64,61.75Zm14.19-11c-.57,1.13-1.38,2.82-2.09,4.62a38.12,38.12,0,0,0,.51-8.92A15,15,0,0,1,35.83,50.79Zm-.25,10c-.63-2.72-1-6.53.27-9.91A24.87,24.87,0,0,1,35.58,60.8Z"/>
  <path id="grassL" class="cls-2" d="M48.9,65.24c-.87-2.73-2.23-8.66.41-13.18A57.19,57.19,0,0,0,46.55,58c.63-3.82.94-8.31,0-12.09,0,0-1.21,12.57-2.47,17.91a20.38,20.38,0,0,1,1.59-13.86A38.44,38.44,0,0,0,41,62.47a41.21,41.21,0,0,0-4-9.4,20.54,20.54,0,0,1,1.82,12.79l-.41.22C37.25,60.38,36.15,49,36.15,49c-1,3.79-.66,8.28,0,12.09-.42-1.07-.88-2.09-1.3-3,.1-.21.21-.42.32-.63l-.32.62c-.64-1.37-1.2-2.41-1.39-2.76a14.91,14.91,0,0,0-.4-2.55s-.92,9.52-1.87,13.57a15.49,15.49,0,0,1,1.2-10.51,29.3,29.3,0,0,0-3.51,9.52,30.81,30.81,0,0,0-3-7.12A15.57,15.57,0,0,1,27.22,68l-.31.17C26,63.81,25.17,55.2,25.17,55.2a23.34,23.34,0,0,0,0,9.16,42.91,42.91,0,0,0-1.94-4.19,12.24,12.24,0,0,1,1.53-5.92A57.19,57.19,0,0,0,22,60.14c.63-3.82.94-8.31,0-12.09,0,0-1.21,12.57-2.47,17.91A20.38,20.38,0,0,1,21.07,52.1a38.44,38.44,0,0,0-4.63,12.56,41.21,41.21,0,0,0-4-9.4,20.54,20.54,0,0,1,1.82,12.79l-.41.23c-1.19-5.71-2.29-17.07-2.29-17.07-1,3.79-.66,8.28,0,12.09a56,56,0,0,0-2.75-5.89c2.64,4.53,1.59,13.64,1.59,13.64l-2.3,1,23.08,8.53L50,69.72M14.06,69.1v0Zm10-2.45a22.18,22.18,0,0,1-.89-6.47A10.93,10.93,0,0,1,24.1,66.65Zm10.5-8.11c-.42.84-1,2.09-1.54,3.42a27.7,27.7,0,0,0,.37-6.6A11.1,11.1,0,0,1,34.6,58.54ZM34.42,66a12.83,12.83,0,0,1,.2-7.34A18.62,18.62,0,0,1,34.42,66ZM23.06,7.22c6.45,21.13,7.42,40.48,6.22,59.12m16.83-42c-4.66,15.27-5.36,29.25-4.49,42.71M16.79,65.38c.87-13.47.16-27.45-4.5-42.72"/>
  <path id="grass-flowerP" class="cls-3" d="M27.17,5.27a3.08,3.08,0,0,0,.88-2.15,3.11,3.11,0,0,0-5.93-1.31A3.06,3.06,0,0,0,19.45.2a3.11,3.11,0,0,0-3.11,3.12,3,3,0,0,0,.37,1.4A3.09,3.09,0,0,0,14.94,7.5a3.12,3.12,0,0,0,3.12,3.12c.11,0,.21-.06.32-.07a3.07,3.07,0,0,0,6.1.16,3,3,0,0,0,1.74.6,3.09,3.09,0,0,0,1-6Zm-4,2.51a3,3,0,0,0-1.75-.61,1.83,1.83,0,0,0-.32.07A2.89,2.89,0,0,0,20.8,6.1a3.15,3.15,0,0,0,1.46-1.47A3,3,0,0,0,24,6,3.09,3.09,0,0,0,23.19,7.78ZM52,24.58a2.25,2.25,0,0,1-2.25,2.25,1.69,1.69,0,0,1-.24,0,2.21,2.21,0,0,1-4.4.12,2.23,2.23,0,0,1-1.26.44,2.26,2.26,0,0,1-2.26-2.26A2.23,2.23,0,0,1,43.14,23a2.24,2.24,0,1,1,3.65-2.5A2.23,2.23,0,0,1,51,21.56a2.17,2.17,0,0,1-.27,1A2.25,2.25,0,0,1,52,24.58ZM16.83,23.37a2.25,2.25,0,0,1-2.25,2.25,2.14,2.14,0,0,1-1.26-.44,2.21,2.21,0,0,1-4.4-.11,1.69,1.69,0,0,1-.24.05,2.24,2.24,0,0,1-1-4.27,2.14,2.14,0,0,1-.27-1,2.25,2.25,0,0,1,2.25-2.25,2.23,2.23,0,0,1,1.93,1.16,2.24,2.24,0,1,1,3.64,2.5A2.22,2.22,0,0,1,16.83,23.37Z"/>
  <path id="grass-flowerC" class="cls-4" d="M24.44,6.38a2.29,2.29,0,1,1-2.29-2.29A2.29,2.29,0,0,1,24.44,6.38ZM46.77,22.12a1.66,1.66,0,1,0,1.66,1.65A1.65,1.65,0,0,0,46.77,22.12ZM11.64,20.4a1.66,1.66,0,1,0,1.65,1.66A1.66,1.66,0,0,0,11.64,20.4Z"/>
</svg>
