<svg id="nature1" xmlns="http://www.w3.org/2000/svg" width="1.55in" height="1.33in" viewBox="0 0 111.59 95.81">
  <defs>
    <style>
      .cls-1 {
        fill: #8c918a;
      }

      .cls-2 {
        fill: #777a74;
      }

      .cls-3 {
        fill: #9ca09a;
      }

      .cls-4 {
        fill: #848981;
      }

      .cls-5 {
        fill: #7b8539;
      }
    </style>
  </defs>
  <g id="nature1Rocks">
    <path id="nature1Rocks-rock2Light" class="cls-1" d="M74.6,37.18A41.05,41.05,0,0,1,80.53,40C83.74,33.74,87,24,88.59,22.72,94.87,17.88,76.09,6,80.26,1.12,76.09,6,80.2,9.62,73.91,14.45c-2.37,1.83,2.85,6.88-1.3,7.51C65.26,23.07,58,29.48,54.19,36.07,65.4,34.85,73.82,36.88,74.6,37.18Z"/>
    <path id="nature1Rocks-rock2Shadow" class="cls-2" d="M88.59,22.72C87,24,83.74,33.74,80.53,40A73.93,73.93,0,0,1,98.46,55.09c.46.48.91,1,1.35,1.48,4.77-1.32,8.27-3.35,9.37-6.12,1.57-3.94-3.22-5.58-8.22-20.27C96.58,17.31,97.6,10.79,91.18,5.09c-3.71-3.3-9.32-5.83-10.92-4C76.09,6,94.87,17.88,88.59,22.72Z"/>
    <path id="nature1Rocks-rock1Light" class="cls-3" d="M20.65,87.12C22,82.57,24.3,80.68,38.57,69.2c8.4-6.76,18.52-10.64,28-12.79,16.39-3.72,30.93-2.29,31.6-1.6l.26.28A73.93,73.93,0,0,0,80.53,40a41.05,41.05,0,0,0-5.93-2.85c-.78-.3-9.2-2.33-20.41-1.11a58.84,58.84,0,0,0-30.87,12.6C9.06,60.15-4.83,80.2,2.63,90.35c4.44,6,18.22,5.72,30.31,3.36C25,94.9,18.68,93.68,20.65,87.12Z"/>
    <path id="nature1Rocks-rock1Shadow" class="cls-4" d="M99.81,56.57c-.44-.5-.89-1-1.35-1.48l-.26-.28c-.67-.69-15.21-2.12-31.6,1.6-9.51,2.15-19.63,6-28,12.79C24.3,80.68,22,82.57,20.65,87.12c-2,6.56,4.34,7.78,12.29,6.59a68.13,68.13,0,0,0,14.48-4C57.63,85.6,55.88,81.38,65,79.57a14.23,14.23,0,0,1,4.62-.24c5.75.77,7,5.92,13.2,6.76A16.71,16.71,0,0,0,88,85.87a7.13,7.13,0,0,1,1.14-.07c.92,0,2.14,0,3.57.11,4.65.21,11.37.41,16-2C114.22,81,109.34,67.37,99.81,56.57Z"/>
  </g>
  <path id="nature1Moss" class="cls-5" d="M67.7,28.62c1.11-1.11,3.1-1.37,3.38-1s-.83.76-1.13,2,.61,1.71.31,3c-.25,1-1.16,2-2,2s-.67-.76-1.63-1.17c-1.28-.53-2.64.17-2.77-.09s1.52-.72,2.56-2.15C67.3,30,66.87,29.45,67.7,28.62Zm11.94-7.91c-1,1.42,1.47.49,1.61.76s-2.68,1-1.41,1.48c1,.4,1,1.13,1.64,1.17s1.7-1,1.94-2c.31-1.24-.61-1.69-.3-3s1.35-1.66,1.12-2-1.34.86-2.45,2C81,20,80.47,19.58,79.64,20.71ZM13.74,73.86c-5,1.73-3.69,2.51-4,2.64-4,1.94,0,3.93,1.25,4.46,1,.4.46-3.55,4-4.92.73-.28,2.24.27,2.49-.75.3-1.24-.61-1.69-.31-3s4.9-4.9,4.68-5.2-7.36,2.2-8.46,3.31C12.6,71.27,15.07,73.4,13.74,73.86ZM39.37,49.73c-1,1.42-12.16,8.1-1.6,3.11.26-.12,1.8,1.09,2.76.09,2.79-2.88.32,5.4,1,5.44s2.37-5.23,2.62-6.25c.3-1.24,3.37-.65,4.21-1.65,5.65-6.72,6-3.84,9.17-5.86,1.86-1.18-6.93-5.87-15.57.85C41,46.18,40.2,48.59,39.37,49.73Z"/>
</svg>
