<svg id="river" xmlns="http://www.w3.org/2000/svg" width="3.54in" height="6.42in" viewBox="0 0 254.63 462.29">
  <defs>
    <style>
      .cls-1 {
        fill: #6d7f3b;
      }

      .cls-2 {
        fill: #568ec1;
      }

      .cls-3 {
        fill: #4880aa;
      }

      .cls-4 {
        fill: #40789b;
      }

      .cls-5 {
        fill: #7e9342;
      }

      .cls-6 {
        fill: #9ca09a;
      }

      .cls-7 {
        fill: #848981;
      }

      .cls-8 {
        fill: #73894b;
      }

      .cls-9 {
        fill: #86a04d;
      }

      .cls-10 {
        fill: #bdd9ef;
      }
    </style>
  </defs>
  <path id="riverE" class="cls-1" d="M52.73,191.65,48,184.51s32.65-.6,50.41-55.2,45.8-67.43,79.14-82.05S224,0,224,0l9.62,4.11s10.65,40.94-24.39,53.56S129.73,150.52,91.54,174.19,52.73,191.65,52.73,191.65Z"/>
  <path id="riverL" class="cls-2" d="M119.2,212.19,52.62,191.47s39.13-4.39,56.89-59,45.81-67.44,79.14-82S233.39,4.05,233.39,4.05l21.24,5.31s.67,38.85-34.37,51.48-22.21,66.78-60.39,90.45S119.2,212.19,119.2,212.19Z"/>
  <polygon id="riverS1" class="cls-3" points="52.62 191.47 119.2 212.19 85.22 264.69 20.48 245.09 52.62 191.47"/>
  <polygon id="riverS2" class="cls-4" points="20.48 245.09 85.22 264.69 64.81 460.58 17.52 447.5 2.42 426.37 20.48 245.09"/>
  <path id="river-grass1" class="cls-5" d="M157.62,120.35c-1.07-3.39-2.76-10.73.51-16.33a68.73,68.73,0,0,0-3.41,7.29c.78-4.73,1.15-10.29,0-15,0,0-1.36,14.07-2.84,21.14l-.51-.27a25.49,25.49,0,0,1,2.25-15.85A50.47,50.47,0,0,0,148.66,113c-1.14-8-5.74-15.56-5.74-15.56a25.27,25.27,0,0,1,2,17.17c-1.56-6.61-3.07-22.19-3.07-22.19-1.19,4.69-.81,10.25,0,15a69.47,69.47,0,0,0-3.41-7.3c3.27,5.61,1.58,13,.51,16.34l-3,1.55,1.1,2,5.17-.94,3.71,1.7-1.82,1,4.86,3.76,5.49-2.51,5.17,1,1.1-2Zm-6-1.85h0v0Z"/>
  <path id="river-rockL" class="cls-6" d="M164.06,129.36c-.5-1.66-1.34-2.35-6.55-6.54a25.05,25.05,0,0,0-10.23-4.67c-6-1.36-11.3-.84-11.54-.59l-.09.1a26.88,26.88,0,0,1,6.54-5.49,15.39,15.39,0,0,1,2.17-1,21.27,21.27,0,0,1,7.45-.4,21.49,21.49,0,0,1,11.27,4.6c5.21,4.19,10.28,11.51,7.55,15.22-1.62,2.21-6.65,2.09-11.06,1.23C162.47,132.2,164.77,131.75,164.06,129.36Z"/>
  <path id="river-rockS" class="cls-7" d="M135.15,118.2l.5-.54.09-.1c.24-.25,8.27-7.45,14.26-6.1,3.47.79,4.44,8.89,7.51,11.36,5.21,4.19,6.05,4.88,6.55,6.54.71,2.39-1.59,2.84-4.49,2.41a25.4,25.4,0,0,1-5.29-1.48c-3.73-1.48-3.09-3-6.42-3.69a5,5,0,0,0-1.69-.08c-2.1.28-2.55,2.16-4.82,2.46a6,6,0,0,1-1.89-.08l-.41,0c-.34,0-.78,0-1.3,0-1.7.08-4.16.15-5.84-.73C129.89,127.13,131.67,122.15,135.15,118.2Z"/>
  <path id="river-moss" class="cls-8" d="M167.19,125.29c.26-.53.75-.9.88-.81s-.23.75,0,.94a.5.5,0,0,0,.59-.16c.21-.27-.12-.56,0-1.22s.26-.61.17-.93a1,1,0,0,0-.63-.61c-.51-.19-1.14,0-1.17.24s.63.37.6.61-.38.17-.7.43a2,2,0,0,0-.48,1.56c0,.81.44,1.5.57,1.47S166.82,126.06,167.19,125.29Zm-3.08-3.67c-.11-.76-.54-1.07-.42-1.9.08-.56.31-.63.39-1.17a2.91,2.91,0,0,0-.65-2,3,3,0,0,0-3.12-.9c-.81.29-.79.83-1.66,1.08-1.08.31-1.87-.31-2.05,0s.61,1.57,1.9,2.3c1.51.86,2.55.38,3.16,1.25a2.71,2.71,0,0,1,.2,2c-.29,1.27-1.22,1.73-1,2.2s1,.49,1.59.3A3,3,0,0,0,164.11,121.62Z"/>
  <path id="river-grass2" class="cls-9" d="M152,131.43c-.66-2.08-1.69-6.59.32-10a41.73,41.73,0,0,0-2.1,4.47,23.49,23.49,0,0,0,0-9.19s-.84,8.64-1.75,13l-.31-.17a15.68,15.68,0,0,1,1.38-9.73,31.2,31.2,0,0,0-3,7.15,29.19,29.19,0,0,0-3.53-9.56,15.44,15.44,0,0,1,1.21,10.55c-.95-4.07-1.88-13.63-1.88-13.63a23.54,23.54,0,0,0,0,9.2,42.46,42.46,0,0,0-2.1-4.48c2,3.44,1,8,.31,10l-1.85.95.67,1.25,3.18-.58,2.28,1-1.12.6,3,2.31,3.38-1.54,3.17.58.68-1.25Zm-3.69-1.14h0v0Z"/>
  <path id="river-bubbles" class="cls-10" d="M70.75,448.19A4.56,4.56,0,0,0,64.37,444a3,3,0,0,0-2.52-2.17,1.79,1.79,0,0,0,0-.23,4.11,4.11,0,0,0-8.12-.89,3.41,3.41,0,0,0-1.73-.49,3.5,3.5,0,0,0-1.48.35,3.76,3.76,0,0,0-1.33-1.74,4.56,4.56,0,0,0,.26-1.48A4.69,4.69,0,0,0,46,432.82v0a6.27,6.27,0,0,0-10.22-4.86,3.87,3.87,0,0,0-5.63.78,2.89,2.89,0,0,0-1-.21,4.93,4.93,0,0,0-7.72-2.84,4.25,4.25,0,0,0-1.14-.18,4.32,4.32,0,0,0-1.72.38,1.9,1.9,0,0,0,0-.25,4.56,4.56,0,0,0-8.49-2.31,6.33,6.33,0,0,0-2.92-.93,4.36,4.36,0,0,0-2.69-.93A4.44,4.44,0,0,0,0,425.87a4.35,4.35,0,0,0,.46,1.93,6.13,6.13,0,0,0-.07.87A6.33,6.33,0,0,0,6.72,435a5.67,5.67,0,0,0,.71-.06,1,1,0,0,0,0,.17,2.9,2.9,0,0,0,1.42,2.49,3.4,3.4,0,0,0,3,5l.18,0a1.65,1.65,0,0,0-.22.82,1.72,1.72,0,0,0,1.45,1.7,2.73,2.73,0,0,0,2.51,3.8,2.7,2.7,0,0,0,1.53-.48,1.37,1.37,0,0,0,.2.22,1.88,1.88,0,0,0,1.76.42,4.54,4.54,0,0,0,8,2.17,3.91,3.91,0,0,0-.05.48,2.92,2.92,0,0,0,5.44,1.47,2,2,0,0,0,2.62.55,2.9,2.9,0,0,0,2.53,2.05,2.54,2.54,0,0,0-.15.83,2.43,2.43,0,1,0,4.85,0,2.1,2.1,0,0,0-.09-.61,1.54,1.54,0,0,0,.36-.36,2.06,2.06,0,0,0,1.62.79,2.13,2.13,0,0,0,1-.26s0,.05,0,.08a1.61,1.61,0,0,0,3.15.5,2.89,2.89,0,0,0,4.11.47,3.66,3.66,0,0,0,2.54,1.09h0a2.07,2.07,0,0,0,2.07,2.07,2,2,0,0,0,.85-.19,2.9,2.9,0,0,0,4.55.88,2,2,0,0,0,.27,0,1.83,1.83,0,0,0,.9-.24,3,3,0,0,0,5.53-1.63,3,3,0,0,0-.88-2.11,4.4,4.4,0,0,0-.06-5A4.54,4.54,0,0,0,70.75,448.19Zm-12.12-2.53-.13,0h.11Z"/>
</svg>
